<svg xmlns="http://www.w3.org/2000/svg" viewBox="0 0 368 208" width="368" height="208">
<rect x="1.5" y="1.5" width="365" height="205" rx="14" fill="#fafafa" stroke="#1f1f1f" stroke-width="2.5"/>
<g fill="none" stroke="#1f1f1f" stroke-width="1.7" stroke-linecap="round" stroke-linejoin="round">
  <g transform="translate(28 28) scale(1.333)"><path d="M15.18 20.82Q14.33 16.59 14.84 13.01A1 1 0 0 0 14.01 12Q11.72 11.77 9.95 12.16A1 1 0 0 0 9.04 13.01Q8.45 17.34 8.94 20.95 M3.18 9.84A2 2 0 0 1 3.64 8.42Q7.81 5.37 10.85 2.28A2 2 0 0 1 13.3 2.47Q17.18 4.96 20.48 8.32A2 2 0 0 1 20.94 10.08Q21.73 14.71 20.96 18.85A2 2 0 0 1 18.99 20.93Q12.91 19.92 4.83 21.05A2 2 0 0 1 2.96 18.96Q2.46 14.86 3.18 9.84Z"/></g>
  <g transform="translate(68 28) scale(1.333)"><path d="M21 20.84Q19.1 18.11 16.86 16.49 M11.19 2.85Q15.57 2.93 17.94 6.96Q20.22 11.06 18.09 14.85Q15.69 18.91 10.98 18.87Q6.33 18.96 3.92 14.82Q1.79 10.9 3.92 7.04Q6.43 3.05 11.19 2.85Z"/></g>
  <g transform="translate(108 28) scale(1.333)"><path d="M9.76 4.26A2.34 2.34 0 0 1 14.4 4.2A2.34 2.34 0 0 0 17.61 6.14A2.34 2.34 0 0 1 19.95 10.09A2.34 2.34 0 0 0 19.89 13.95A2.34 2.34 0 0 1 17.57 17.96A2.34 2.34 0 0 0 14.28 19.9A2.34 2.34 0 0 1 9.63 19.83A2.34 2.34 0 0 0 6.3 17.89A2.34 2.34 0 0 1 4.07 13.91A2.34 2.34 0 0 0 4.01 10.18A2.34 2.34 0 0 1 6.39 6.05A2.34 2.34 0 0 0 9.75 4.05 M12.09 9.07Q15.1 9 14.99 11.99Q14.93 15.14 12.04 14.83Q8.94 15.08 9.12 12.15Q8.93 8.92 12.09 9.07Z"/></g>
  <g transform="translate(148 28) scale(1.333)"><path d="M10.47 20.81A2 2 0 0 0 13.71 20.99 M3.43 15.25A1 1 0 0 0 4.08 17.09Q13.24 18.06 20.08 16.8A1 1 0 0 0 20.64 15.3C19.37 13.98 17.75 12.35 17.82 7.84Q18.1 4.54 14.86 2.98Q12.1 1.11 9.02 2.81Q6.07 4.65 5.85 7.88C5.82 12.31 4.68 14 3.26 15.34"/></g>
  <g transform="translate(188 28) scale(1.333)"><path d="M8.07 1.89Q7.71 3.69 8.1 5.84 M16.01 2.07Q15.5 4.07 15.94 6.07 M4.9 4.18Q11.82 3.36 19.06 4.1Q20.99 4.05 20.97 6.08Q20.22 12.46 21.04 19.99Q20.96 22.02 19.07 21.83Q11.03 23 4.93 21.9Q2.96 21.95 2.83 20.11Q3.52 12.69 2.8 5.81Q2.98 3.96 4.9 4.18Z M2.82 9.9Q11.66 10.5 20.85 9.86"/></g>
  <g transform="translate(228 28) scale(1.333)"><path d="M22.16 6.91Q18.41 10.24 12.92 12.65A2 2 0 0 1 11.04 12.81Q6.12 10.22 2.16 7.1 M3.94 4.09Q11.62 5.17 19.82 4.16Q21.99 4.05 21.99 6.07Q22.58 11.17 22.03 17.98Q22.03 20.02 19.85 19.93Q11.38 19.16 4.06 20.2Q2.03 19.96 1.88 17.91Q1.24 11.06 1.86 5.9Q2.03 4.04 3.94 4.09Z"/></g>
  <g transform="translate(268 28) scale(1.333)"><path d="M9.87 11.19Q10.33 14.09 9.94 17.2 M13.8 11.09Q13.43 13.66 13.83 17.19 M19.02 6.05Q18.22 13.66 18.9 19.97A2 2 0 0 1 17 22.1Q12.64 21.18 7.19 22.05A2 2 0 0 1 5.02 20Q5.95 12.58 5.04 6.05 M2.8 5.91Q11.81 4.98 21.01 6.04 M7.88 5.89L7.88 3.81A2 2 0 0 1 9.99 2.09Q12.19 1.56 14.16 1.9A2 2 0 0 1 16.03 4.07L15.96 6.1"/></g>
  <g transform="translate(308 28) scale(1.333)"><path d="M21.21 7A1 1 0 0 0 17.19 2.89Q10.28 8.26 3.72 16.3A2 2 0 0 0 3.4 17.1Q2.18 19.29 2.18 21.36A0.5 0.5 0 0 0 2.58 22.06Q4.35 20.85 6.99 20.51A2 2 0 0 0 7.87 20.06Q15.69 13.62 21.21 7Z M14.94 5.13Q17.39 6.8 19.06 9"/></g>
  <g transform="translate(28 68) scale(1.333)"><path d="M13.97 3.96A2 2 0 0 1 15.83 5.02L16.18 5.88A2 2 0 0 0 17.93 6.96L20.07 7.05A2 2 0 0 1 22.09 8.99Q22.54 13.95 22.1 18.06A2 2 0 0 1 19.9 19.97Q13.04 18.71 3.93 19.82A2 2 0 0 1 1.95 18.09Q1.4 13.92 2.19 9.18A2 2 0 0 1 4.1 7.04L6.01 6.96A2 2 0 0 0 7.67 5.93L8.25 5.08A2 2 0 0 1 10.08 3.94Q11.93 4.22 13.97 3.96Z M12.05 9.93Q14.91 9.98 15.15 13.1Q14.99 15.91 12.13 16.04Q9.05 15.91 8.93 12.96Q9.06 9.89 12.05 9.93Z"/></g>
  <g transform="translate(68 68) scale(1.333)"><path d="M2.2 9.38Q2.03 5.8 5.7 4.29Q9.03 3.06 11.51 5.82A0.56 0.56 0 0 0 12.32 5.76Q14.97 3.01 18.64 4.35Q21.93 5.63 21.84 9.3C21.77 11.66 20.35 13.53 18.81 15.06Q16.65 17.81 13.56 20.42A2 2 0 0 1 10.51 20.27Q7.4 17.93 4.92 15.17C3.51 13.62 1.96 11.71 1.95 9.36"/></g>
  <g transform="translate(108 68) scale(1.333)"><path d="M11.63 2.13A0.53 0.53 0 0 1 12.49 2.37Q12.97 4.81 14.63 7.15A2.12 2.12 0 0 0 16.35 8.23Q18.67 7.97 21.64 8.9A0.53 0.53 0 0 1 21.76 9.7Q19.49 11.44 18.27 13.49A2.12 2.12 0 0 0 17.46 15.35Q18.13 17.56 18.25 20.58A0.53 0.53 0 0 1 17.56 20.92Q15.55 19.22 13.19 18.46A2.12 2.12 0 0 0 10.93 18.57Q9.06 20.16 6.26 20.93A0.53 0.53 0 0 1 5.72 20.51Q6.41 18.11 6.64 15.15A2.12 2.12 0 0 0 5.93 13.33Q3.58 12.07 2.13 9.96A0.53 0.53 0 0 1 2.36 8.97Q4.71 8.95 7.7 8.19A2.12 2.12 0 0 0 9.3 7.02Q10.15 4.28 11.63 2.13Z"/></g>
  <g transform="translate(148 68) scale(1.333)"><path d="M22.15 16.81A2 2 0 0 1 19.98 18.91Q12.92 19.99 6.96 19.1A2 2 0 0 0 5.4 19.5Q3.84 20.3 3.17 21.59A0.71 0.71 0 0 1 1.93 21.23Q1.22 11.89 1.95 4.95A2 2 0 0 1 4.09 3.09Q11.63 2.44 20.16 3.09A2 2 0 0 1 21.98 5.04Q22.54 11.77 22.15 16.81Z"/></g>
  <g transform="translate(188 68) scale(1.333)"><path d="M11.94 14.86Q11.48 17.36 11.99 20.03C12.06 20.12 14.95 19.47 15.83 17.96C16.92 16.32 15.97 12.99 15.96 13.07 M4.61 16.35C3.19 17.61 2.69 21.55 2.64 21.62C2.63 21.7 6.35 20.79 7.63 19.36C8.32 18.48 8.12 17.27 7.32 16.45A2.18 2.18 0 0 0 4.58 16.4 M8.97 11.82Q9.83 10.03 10.97 8.14Q14.74 1.96 21.93 1.94C21.96 4.6 20.97 9.61 15.82 13.12Q14.1 14.14 12.04 14.81Q10.39 13.65 8.97 11.82Z M9.18 11.95Q6.15 11.43 3.8 12.13C3.81 12.03 4.37 8.87 5.92 7.96C7.49 6.96 11 8.31 10.96 8.22"/></g>
  <g transform="translate(228 68) scale(1.333)"><path d="M10 1.87Q10.28 3.16 10.07 4.11 M14.03 2.07L13.96 3.93 M15.81 8.14A1 1 0 0 1 17.02 9.07Q17.55 13.04 17.17 17.01Q16.93 18.57 15.93 20Q14.56 21.01 12.83 21.07Q10.19 21.35 7.04 20.98Q5.26 20.97 4.14 19.66Q2.95 18.69 3.18 16.94Q2.46 12.8 3.1 8.84A1 1 0 0 1 4.08 7.96Q11.67 8.89 17.8 8Q20.21 7.99 21.5 10.11Q22.68 12.03 21.41 14.13Q20.34 16.06 17.95 15.96L16.94 16.07 M5.9 2.08L6.14 3.99"/></g>
  <g transform="translate(268 68) scale(1.333)"><path d="M12.17 20.14Q12.73 16.3 11.81 11.06 M13.94 6.8Q15.63 6.9 16.99 7.98Q17.95 9.35 17.95 10.95Q17.67 12.61 17.81 14.06Q18.12 17.58 14.82 19.1Q11.99 21.04 9.07 19.21Q5.9 17.58 5.95 13.81Q6.22 12.4 6.07 11.03Q6.03 9.24 7.11 8.03Q8.24 6.97 10.08 6.85Q11.85 6.6 13.94 6.8Z M14.19 3.88Q15.31 3.29 15.9 1.94 M21 20.93Q21.05 19.35 20.03 18.19Q18.82 16.98 17.01 17.15 M21.12 4.92Q21.11 6.45 20.08 7.49Q18.86 8.79 17.49 9.16 M21.87 13.04Q19.78 12.48 18.11 12.86 M3.06 21.16Q3.1 19.35 4.08 18.06Q5.29 17.05 6.77 16.83 M2.9 5.08Q3.11 6.53 4.14 7.55Q4.99 8.75 6.61 8.95 M6.08 12.97Q4.04 12.47 1.92 12.89 M7.82 1.95Q9.16 2.53 9.94 3.71 M9.03 7.03L9.04 6.06Q8.94 4.34 10.6 3.35Q11.97 2.64 13.34 3.29Q14.88 4.32 15.02 6.06L15.04 7.16"/></g>
  <g transform="translate(308 68) scale(1.333)"><path d="M13.18 2.26Q18.97 2.8 21.35 8.05Q23.46 13.65 19.88 17.95Q16.41 22.71 10.78 21.95Q4.87 21.14 2.59 15.73Q0.47 10.45 3.93 5.81Q7.49 1.4 13.18 2.26Z M12.04 1.93Q8.01 6.14 8.12 12.09Q7.93 17.69 12 21.92Q15.93 17.89 15.91 12.18Q15.99 6.26 12.07 2.12 M2.14 11.91Q12.21 12.94 22.05 12.17"/></g>
  <g transform="translate(28 108) scale(1.333)"><path d="M5.04 10.9Q12.89 11.56 19.19 11.16Q21.04 11.01 20.92 13.1Q21.48 16.27 20.86 19.83Q20.97 22.04 19.03 22.03Q11.24 23.01 4.95 22.09Q3.06 21.98 3.06 20.19Q3.46 16.68 2.97 12.92Q2.96 11.04 5.04 10.9Z M7.15 10.95Q7.36 9 7.08 6.83Q6.97 4 9.46 2.61Q11.96 1.16 14.68 2.78Q17 4.15 16.84 7.03Q16.59 9.32 17.11 11.12"/></g>
  <g transform="translate(68 108) scale(1.333)"><path d="M17.54 19.06Q13.52 18.22 9.07 19Q4.58 18.92 2.65 15.26Q0.85 11.25 3.27 7.76Q5.99 4.29 10.28 5.27Q14.5 5.93 15.74 9.81L17.48 9.95Q20.16 10.05 21.5 12.15Q22.74 14.52 21.26 16.82Q20.21 19.07 17.64 19Z"/></g>
  <g transform="translate(108 108) scale(1.333)"><path d="M19.95 9.88C20.03 14.94 14.51 20.09 12.64 21.6A1 1 0 0 1 11.47 21.88C9.67 20.24 4.11 15 4.17 10.07Q3.97 5.3 8.19 3.07Q12.07 0.88 16.08 2.97Q19.91 5.3 20.08 10.16 M11.88 6.99Q15.03 7.04 14.95 10.12Q15.03 13.02 11.86 13.15Q9.06 13.06 8.84 10.01Q9.09 6.94 11.88 6.99Z"/></g>
  <g transform="translate(148 108) scale(1.333)"><path d="M7 21A1 1 0 1 0 9 21A1 1 0 1 0 7 21Z M18 21A1 1 0 1 0 20 21A1 1 0 1 0 18 21Z M2.25 1.95L4.14 2.19Q6.24 7.48 6.75 14.59A2 2 0 0 0 8.72 16.03Q13.94 16.5 18.3 15.85A2 2 0 0 0 20.41 14.57Q20.46 11.11 22.04 7Q13.36 6.34 5.3 7.02"/></g>
  <g transform="translate(188 108) scale(1.333)"><path d="M11.87 6.82Q12.74 14.15 12.13 20.88 M20.02 11.09Q19.78 15.16 20.19 18.94A2 2 0 0 1 17.91 20.9Q12.06 20.46 5.92 21.07A2 2 0 0 1 4.04 19.04Q3.58 15.36 3.99 11.17 M7.41 7.03A1 1 0 0 1 7.53 2.06Q10.85 1.97 12.01 7.02Q13.34 1.86 16.62 1.92A1 1 0 0 1 16.46 7.05 M3.84 6.83Q12.65 6.23 20.18 7.01Q21.05 7.01 20.83 7.96L21.05 10.09Q21.06 10.93 19.89 11.12Q11.42 10.1 3.93 11.18Q2.97 10.98 2.81 9.97L2.93 8.05Q3 6.97 3.84 6.83Z"/></g>
  <g transform="translate(228 108) scale(1.333)"><path d="M11.86 11.96Q14.62 10.27 16.59 7.64 M20.09 2.24A1 1 0 0 0 18.72 2.3L17.64 3.44A2 2 0 0 0 17.06 4.81L16.94 6.27A2 2 0 0 1 16.51 7.49A2 2 0 0 1 17.84 6.98L19.08 6.96A2 2 0 0 0 20.61 6.4L21.61 5.35A1 1 0 0 0 21.62 3.85Q20.63 3.15 20.09 2.24Z M5.89 15.87Q6.71 17.11 7.88 17.9 M8.26 9.93Q8.95 8.12 11.08 8.05Q13.18 8.07 14.44 9.35Q16.11 10.88 16.07 12.94Q16.12 15.06 14.1 15.79L13.28 16.21A2 2 0 0 0 12.05 18.07Q12.09 19.62 10.99 20.71Q9.54 21.97 8.13 21.83Q5.48 22.08 3.67 20.07Q1.89 18.37 1.98 16.07Q1.99 14.39 3.18 13.09Q4.46 12.03 6.1 11.93A2 2 0 0 0 7.86 10.73Z"/></g>
  <g transform="translate(268 108) scale(1.333)"><path d="M11.9 18.18Q12.91 12.18 12.11 4.81 M14.97 13.07Q11.9 12.14 12.01 8.8Q12.02 12.08 9.09 13.11 M17.66 6.51Q18.76 4.63 17.44 3.02Q16.02 1.5 14.16 2.11Q12.07 3.02 12.12 4.89Q12.04 2.99 9.95 2.32Q8.05 1.54 6.83 2.98Q5.28 4.68 6.48 6.64 M17.81 5.19Q19.91 5.6 20.52 7.42Q21.5 9.1 20.66 11 M18.2 17.88Q21.06 18.07 22.02 15.1Q22.67 12.12 20.19 10.41 M19.96 17.68Q20.16 19.85 18.16 21.09Q16.2 22.59 14.1 21.48Q11.95 20.33 12.09 18.03Q12.01 20.41 9.97 21.7Q7.74 22.75 5.51 21.28Q3.74 20 3.84 17.34 M5.84 18.04Q2.89 17.95 2.03 14.92Q1.36 12.18 4.15 10.34 M6.2 4.95Q4.11 5.67 3.44 7.56Q2.59 9.25 3.37 11.04"/></g>
  <g transform="translate(308 108) scale(1.333)"><path d="M12.07 12.91Q12.46 16.74 11.81 19.99A2 2 0 0 0 16.05 20.03 M11.93 1.95L12.09 4.12 M20.82 13.11A1 1 0 0 0 22.05 11.81Q19.98 3.93 12.09 4.06Q3.92 4.02 2.01 11.91A1 1 0 0 0 2.91 13.09Q10.8 12.23 20.82 13.11Z"/></g>
  <g transform="translate(28 148) scale(1.333)"><path d="M10.06 20.03Q9.73 18.76 8.77 17.37Q7.51 18.01 6.08 18.11 M9.87 4.1Q9.61 5.53 8.91 6.42Q7.72 6.48 6.19 6.12 M13.88 20.04Q14.2 18.37 15.24 17.31Q16.67 17.39 17.85 18.14 M14.11 4.15Q14.33 5.65 15.09 6.63Q16.57 6.52 18.06 5.87 M17 20.91Q16.19 17.8 14 15.11Q12.25 15.32 9.93 14.95 M17.09 2.87Q16.22 5.68 14.06 9.03Q15.05 10.35 15.51 11.98 M1.86 11.95Q4.89 11.43 8.37 12.02Q9.56 10.63 9.8 9.18 M19.93 10.1Q19.26 11.32 18.38 12.19Q18.85 13.2 19.92 13.81 M21.97 12.05Q19.18 11.52 15.68 12.06Q14.62 13.38 13.99 15.05 M4.01 10.13Q4.47 11.23 5.35 11.91Q4.51 12.74 4.1 14.13 M7.19 20.92Q8.1 18.07 9.87 15.05Q9.58 13.48 8.68 12.09 M6.93 3.05Q9.21 5.99 10.06 9.1Q11.92 8.64 13.91 8.86"/></g>
  <g transform="translate(68 148) scale(1.333)"><path d="M11.69 8.06Q15.87 7.68 15.81 11.93Q16.27 15.73 12.2 16Q8.33 16.14 7.88 12.27Q7.71 8.32 11.69 8.06Z M12.05 1.81L12.18 3.89 M11.81 20.07L11.91 22.08 M4.96 4.87L6.25 6.41 M17.76 17.65L18.99 19.07 M1.96 11.89L4.01 11.89 M19.94 12.12Q21.04 12.18 22.19 11.81 M6.22 17.64L4.97 19.16 M19.02 5.05L17.69 6.42"/></g>
  <g transform="translate(108 148) scale(1.333)"><path d="M20.91 12.32Q20.71 18.21 15.02 20.44Q9.84 22.46 5.8 18.38Q1.6 14.28 3.57 8.6Q5.69 3.35 11.55 3.02C11.9 3.05 12.27 3.59 12.04 3.92Q9.28 7.86 12.61 11.12Q16.24 14.67 20.3 12.09C20.66 11.87 21.15 12.05 21.11 12.36"/></g>
  <g transform="translate(148 148) scale(1.333)"><path d="M4.07 14.02A1 1 0 0 1 3.32 12.29Q9.22 7.16 13.11 2.28A0.5 0.5 0 0 1 14.02 2.72Q12.4 5.86 12.23 8.7A1 1 0 0 0 12.93 10.09Q16.45 10.56 20.08 9.93A1 1 0 0 1 20.76 11.67Q16.23 17.1 10.89 21.95A0.5 0.5 0 0 1 9.93 21.33Q10.59 18.58 12 15.4A1 1 0 0 0 10.93 13.91Q7.4 13.57 4.07 14.02Z"/></g>
  <g transform="translate(188 148) scale(1.333)"><path d="M11.92 20.03L12.01 20 M2.02 8.8Q6.25 4.97 12.1 4.99Q17.74 4.89 22 8.75 M5.07 12.78Q7.93 10.02 12.07 10.15Q16.07 10.1 18.95 12.77 M8.66 16.29Q10.05 15.11 12.11 14.83Q14.16 15.04 15.31 16.28"/></g>
  <g transform="translate(228 148) scale(1.333)"><path d="M14.92 6.05Q14.07 7.79 14.05 10.16Q17.1 9.56 19.66 10.06A2 2 0 0 1 21.84 12.47Q20.18 16.15 19.4 20.61A2 2 0 0 1 17.55 22.07Q11.46 22.65 4.02 22.2A2 2 0 0 1 1.91 20.03Q1.46 15.96 1.88 12.14A2 2 0 0 1 4.02 10.06Q5.32 10.35 6.64 9.94A2 2 0 0 0 8.59 8.94Q10.94 5.69 11.89 2.16Q13.5 2.06 14.57 3.37Q15.27 4.49 15.09 5.79Z M6.91 10.02Q6.19 15.91 7.02 21.85"/></g>
  <g transform="translate(268 148) scale(1.333)"><path d="M18.62 13.95Q22.14 14.3 22.05 17.94Q21.85 21.33 18.18 20.84Q14.8 20.8 15.19 17.22Q15.24 13.75 18.62 13.95Z M5.76 14.04Q9.31 14.16 8.98 17.87Q8.89 21.18 5.42 21.17Q1.9 20.74 1.97 17.26Q2.19 13.7 5.76 14.04Z M14 5A1 1 0 1 0 16 5A1 1 0 1 0 14 5Z M12.17 17.53Q12.39 15.5 12.03 13.82Q10.22 12.64 9.12 10.99Q11.21 10.15 13.16 7.94Q14.46 9.41 14.95 11.1L17.11 10.84"/></g>
  <g transform="translate(308 148) scale(1.333)"><path d="M5.95 8.68Q6.12 4.79 9.12 2.94Q12.52 1.09 15.76 2.89Q18.9 4.67 19.16 8.31C19.22 14.33 13.05 14.54 13.09 18.47Q12.99 20.59 11.39 21.47Q9.54 22.51 7.68 21.46Q6.01 20.43 6 18.49 M14.94 8.4A2.5 2.5 0 0 0 9.91 8.53L10.08 9.45A2 2 0 1 1 9.92 13.52"/></g>
</g>
</svg>
